<svg xmlns="http://www.w3.org/2000/svg" xmlns:xlink="http://www.w3.org/1999/xlink" width="100" zoomAndPan="magnify" viewBox="0 0 75 37.5" height="50" preserveAspectRatio="xMidYMid meet" version="1.0"><defs><clipPath id="f0853acc60"><path d="M 2 1 L 73 1 L 73 36 L 2 36 Z M 2 1 " clip-rule="nonzero"/></clipPath><clipPath id="9c9a9438b0"><path d="M 2.121094 29.894531 L 70.414062 1.242188 L 72.867188 7.089844 L 4.574219 35.742188 Z M 2.121094 29.894531 " clip-rule="nonzero"/></clipPath><clipPath id="9847a114cf"><path d="M 3.519531 29.335938 L 69.039062 1.847656 C 69.402344 1.695312 69.808594 1.691406 70.171875 1.839844 C 70.535156 1.988281 70.824219 2.277344 70.976562 2.636719 L 72.273438 5.734375 C 72.425781 6.097656 72.429688 6.503906 72.28125 6.867188 C 72.132812 7.230469 71.84375 7.519531 71.484375 7.671875 L 5.964844 35.160156 C 5.601562 35.3125 5.195312 35.3125 4.828125 35.164062 C 4.464844 35.015625 4.175781 34.730469 4.023438 34.367188 L 2.726562 31.273438 C 2.574219 30.910156 2.574219 30.503906 2.722656 30.140625 C 2.871094 29.777344 3.15625 29.488281 3.519531 29.335938 Z M 3.519531 29.335938 " clip-rule="nonzero"/></clipPath><clipPath id="8d71b2493b"><path d="M 2 1 L 73 1 L 73 36 L 2 36 Z M 2 1 " clip-rule="nonzero"/></clipPath><clipPath id="4a26d6447a"><path d="M 4.589844 1.226562 L 72.871094 29.910156 L 70.414062 35.757812 L 2.132812 7.074219 Z M 4.589844 1.226562 " clip-rule="nonzero"/></clipPath><clipPath id="1937fc2a4a"><path d="M 5.96875 1.832031 L 71.476562 29.351562 C 71.839844 29.503906 72.125 29.792969 72.273438 30.15625 C 72.421875 30.519531 72.417969 30.925781 72.269531 31.289062 L 70.96875 34.382812 C 70.816406 34.746094 70.527344 35.03125 70.164062 35.179688 C 69.800781 35.328125 69.390625 35.328125 69.03125 35.175781 L 3.523438 7.65625 C 3.160156 7.503906 2.875 7.214844 2.726562 6.851562 C 2.578125 6.488281 2.578125 6.082031 2.730469 5.71875 L 4.03125 2.621094 C 4.183594 2.261719 4.472656 1.972656 4.835938 1.824219 C 5.199219 1.675781 5.605469 1.679688 5.96875 1.832031 Z M 5.96875 1.832031 " clip-rule="nonzero"/></clipPath></defs><g clip-path="url(#f0853acc60)"><g clip-path="url(#9c9a9438b0)"><g clip-path="url(#9847a114cf)"><path fill="#111111" d="M 2.152344 29.90625 L 70.402344 1.273438 L 72.847656 7.097656 L 4.597656 35.734375 Z M 2.152344 29.90625 " fill-opacity="1" fill-rule="nonzero"/></g></g></g><g clip-path="url(#8d71b2493b)"><g clip-path="url(#4a26d6447a)"><g clip-path="url(#1937fc2a4a)"><path fill="#111111" d="M 4.605469 1.257812 L 72.839844 29.921875 L 70.394531 35.746094 L 2.15625 7.082031 Z M 4.605469 1.257812 " fill-opacity="1" fill-rule="nonzero"/></g></g></g></svg>