<svg xmlns="http://www.w3.org/2000/svg" xmlns:xlink="http://www.w3.org/1999/xlink" width="100" zoomAndPan="magnify" viewBox="0 0 75 37.5" height="50" preserveAspectRatio="xMidYMid meet" version="1.0"><defs><clipPath id="f74f7cd412"><path d="M 0.492188 0 L 74.503906 0 L 74.503906 6.316406 L 0.492188 6.316406 Z M 0.492188 0 " clip-rule="nonzero"/></clipPath><clipPath id="b584e42f1d"><path d="M 1.972656 0 L 73.027344 0 C 73.417969 0 73.796875 0.15625 74.074219 0.433594 C 74.351562 0.710938 74.507812 1.085938 74.507812 1.480469 L 74.507812 4.835938 C 74.507812 5.230469 74.351562 5.605469 74.074219 5.882812 C 73.796875 6.160156 73.417969 6.316406 73.027344 6.316406 L 1.972656 6.316406 C 1.582031 6.316406 1.203125 6.160156 0.925781 5.882812 C 0.648438 5.605469 0.492188 5.230469 0.492188 4.835938 L 0.492188 1.480469 C 0.492188 1.085938 0.648438 0.710938 0.925781 0.433594 C 1.203125 0.15625 1.582031 0 1.972656 0 Z M 1.972656 0 " clip-rule="nonzero"/></clipPath><clipPath id="fd19275d6f"><path d="M 0.492188 15.320312 L 74.503906 15.320312 L 74.503906 21.664062 L 0.492188 21.664062 Z M 0.492188 15.320312 " clip-rule="nonzero"/></clipPath><clipPath id="5c5dcc847a"><path d="M 1.972656 15.34375 L 73.027344 15.34375 C 73.417969 15.34375 73.796875 15.5 74.074219 15.777344 C 74.351562 16.054688 74.507812 16.433594 74.507812 16.824219 L 74.507812 20.183594 C 74.507812 20.574219 74.351562 20.949219 74.074219 21.230469 C 73.796875 21.507812 73.417969 21.664062 73.027344 21.664062 L 1.972656 21.664062 C 1.582031 21.664062 1.203125 21.507812 0.925781 21.230469 C 0.648438 20.949219 0.492188 20.574219 0.492188 20.183594 L 0.492188 16.824219 C 0.492188 16.433594 0.648438 16.054688 0.925781 15.777344 C 1.203125 15.5 1.582031 15.34375 1.972656 15.34375 Z M 1.972656 15.34375 " clip-rule="nonzero"/></clipPath><clipPath id="c07fef1b95"><path d="M 0.492188 30.664062 L 74.503906 30.664062 L 74.503906 37.007812 L 0.492188 37.007812 Z M 0.492188 30.664062 " clip-rule="nonzero"/></clipPath><clipPath id="b8d21f5a70"><path d="M 1.972656 30.6875 L 73.027344 30.6875 C 73.417969 30.6875 73.796875 30.84375 74.074219 31.121094 C 74.351562 31.398438 74.507812 31.777344 74.507812 32.167969 L 74.507812 35.527344 C 74.507812 35.917969 74.351562 36.296875 74.074219 36.574219 C 73.796875 36.851562 73.417969 37.007812 73.027344 37.007812 L 1.972656 37.007812 C 1.582031 37.007812 1.203125 36.851562 0.925781 36.574219 C 0.648438 36.296875 0.492188 35.917969 0.492188 35.527344 L 0.492188 32.167969 C 0.492188 31.777344 0.648438 31.398438 0.925781 31.121094 C 1.203125 30.84375 1.582031 30.6875 1.972656 30.6875 Z M 1.972656 30.6875 " clip-rule="nonzero"/></clipPath></defs><g clip-path="url(#f74f7cd412)"><g clip-path="url(#b584e42f1d)"><path fill="#111111" d="M 0.492188 0 L 74.503906 0 L 74.503906 6.316406 L 0.492188 6.316406 Z M 0.492188 0 " fill-opacity="1" fill-rule="nonzero"/></g></g><g clip-path="url(#fd19275d6f)"><g clip-path="url(#5c5dcc847a)"><path fill="#111111" d="M 0.492188 15.34375 L 74.503906 15.34375 L 74.503906 21.664062 L 0.492188 21.664062 Z M 0.492188 15.34375 " fill-opacity="1" fill-rule="nonzero"/></g></g><g clip-path="url(#c07fef1b95)"><g clip-path="url(#b8d21f5a70)"><path fill="#111111" d="M 0.492188 30.6875 L 74.503906 30.6875 L 74.503906 37.007812 L 0.492188 37.007812 Z M 0.492188 30.6875 " fill-opacity="1" fill-rule="nonzero"/></g></g></svg>