<svg xmlns="http://www.w3.org/2000/svg" xmlns:xlink="http://www.w3.org/1999/xlink" width="423" zoomAndPan="magnify" viewBox="0 0 317.25 107.249998" height="143" preserveAspectRatio="xMidYMid meet" version="1.0"><defs><g/></defs><g fill="#000000" fill-opacity="1"><g transform="translate(-0.604498, 78.097861)"><g><path d="M 4.890625 0 L 4.890625 -48.5 L 19.578125 -48.5 L 19.578125 -39.59375 L 20.109375 -39.59375 C 21.117188 -42.539062 22.820312 -44.863281 25.21875 -46.5625 C 27.625 -48.269531 30.488281 -49.125 33.8125 -49.125 C 37.175781 -49.125 40.054688 -48.257812 42.453125 -46.53125 C 44.859375 -44.8125 46.390625 -42.5 47.046875 -39.59375 L 47.546875 -39.59375 C 48.453125 -42.476562 50.21875 -44.785156 52.84375 -46.515625 C 55.476562 -48.253906 58.585938 -49.125 62.171875 -49.125 C 66.753906 -49.125 70.476562 -47.65625 73.34375 -44.71875 C 76.207031 -41.78125 77.640625 -37.753906 77.640625 -32.640625 L 77.640625 0 L 62.203125 0 L 62.203125 -29.109375 C 62.203125 -31.523438 61.578125 -33.367188 60.328125 -34.640625 C 59.085938 -35.921875 57.476562 -36.5625 55.5 -36.5625 C 53.375 -36.5625 51.707031 -35.867188 50.5 -34.484375 C 49.289062 -33.109375 48.6875 -31.265625 48.6875 -28.953125 L 48.6875 0 L 33.84375 0 L 33.84375 -29.265625 C 33.84375 -31.515625 33.234375 -33.289062 32.015625 -34.59375 C 30.796875 -35.90625 29.1875 -36.5625 27.1875 -36.5625 C 25.832031 -36.5625 24.640625 -36.238281 23.609375 -35.59375 C 22.578125 -34.957031 21.769531 -34.046875 21.1875 -32.859375 C 20.613281 -31.679688 20.328125 -30.296875 20.328125 -28.703125 L 20.328125 0 Z M 4.890625 0 "/></g></g></g><g fill="#000000" fill-opacity="1"><g transform="translate(79.071641, 78.097861)"><g><path d="M 18.5625 0.828125 C 15.46875 0.828125 12.722656 0.304688 10.328125 -0.734375 C 7.941406 -1.785156 6.0625 -3.367188 4.6875 -5.484375 C 3.3125 -7.597656 2.625 -10.253906 2.625 -13.453125 C 2.625 -16.140625 3.097656 -18.410156 4.046875 -20.265625 C 4.992188 -22.117188 6.296875 -23.625 7.953125 -24.78125 C 9.617188 -25.9375 11.535156 -26.8125 13.703125 -27.40625 C 15.867188 -28.007812 18.179688 -28.421875 20.640625 -28.640625 C 23.398438 -28.890625 25.617188 -29.15625 27.296875 -29.4375 C 28.984375 -29.71875 30.210938 -30.128906 30.984375 -30.671875 C 31.753906 -31.210938 32.140625 -31.976562 32.140625 -32.96875 L 32.140625 -33.125 C 32.140625 -34.738281 31.582031 -35.988281 30.46875 -36.875 C 29.351562 -37.757812 27.847656 -38.203125 25.953125 -38.203125 C 23.910156 -38.203125 22.269531 -37.757812 21.03125 -36.875 C 19.789062 -35.988281 19 -34.769531 18.65625 -33.21875 L 4.421875 -33.71875 C 4.835938 -36.664062 5.925781 -39.300781 7.6875 -41.625 C 9.445312 -43.945312 11.867188 -45.773438 14.953125 -47.109375 C 18.035156 -48.453125 21.742188 -49.125 26.078125 -49.125 C 29.171875 -49.125 32.019531 -48.757812 34.625 -48.03125 C 37.238281 -47.3125 39.515625 -46.257812 41.453125 -44.875 C 43.390625 -43.5 44.890625 -41.8125 45.953125 -39.8125 C 47.015625 -37.8125 47.546875 -35.53125 47.546875 -32.96875 L 47.546875 0 L 33.03125 0 L 33.03125 -6.75 L 32.640625 -6.75 C 31.773438 -5.113281 30.675781 -3.726562 29.34375 -2.59375 C 28.007812 -1.457031 26.441406 -0.601562 24.640625 -0.03125 C 22.835938 0.539062 20.8125 0.828125 18.5625 0.828125 Z M 23.328125 -9.28125 C 24.992188 -9.28125 26.492188 -9.613281 27.828125 -10.28125 C 29.160156 -10.957031 30.226562 -11.890625 31.03125 -13.078125 C 31.832031 -14.273438 32.234375 -15.660156 32.234375 -17.234375 L 32.234375 -21.84375 C 31.796875 -21.613281 31.265625 -21.40625 30.640625 -21.21875 C 30.015625 -21.03125 29.332031 -20.847656 28.59375 -20.671875 C 27.863281 -20.503906 27.109375 -20.359375 26.328125 -20.234375 C 25.546875 -20.109375 24.800781 -19.992188 24.09375 -19.890625 C 22.632812 -19.660156 21.394531 -19.300781 20.375 -18.8125 C 19.351562 -18.332031 18.570312 -17.707031 18.03125 -16.9375 C 17.5 -16.164062 17.234375 -15.253906 17.234375 -14.203125 C 17.234375 -12.609375 17.804688 -11.390625 18.953125 -10.546875 C 20.097656 -9.703125 21.554688 -9.28125 23.328125 -9.28125 Z M 23.328125 -9.28125 "/></g></g></g><g fill="#000000" fill-opacity="1"><g transform="translate(128.468867, 78.097861)"><g><path d="M 27.5 19.203125 C 22.882812 19.203125 18.9375 18.554688 15.65625 17.265625 C 12.375 15.984375 9.796875 14.226562 7.921875 12 C 6.046875 9.769531 4.921875 7.242188 4.546875 4.421875 L 19.171875 3.59375 C 19.441406 4.582031 19.945312 5.445312 20.6875 6.1875 C 21.4375 6.925781 22.414062 7.492188 23.625 7.890625 C 24.84375 8.296875 26.269531 8.5 27.90625 8.5 C 30.5 8.5 32.640625 7.867188 34.328125 6.609375 C 36.023438 5.359375 36.875 3.175781 36.875 0.0625 L 36.875 -8.46875 L 36.34375 -8.46875 C 35.726562 -6.96875 34.800781 -5.628906 33.5625 -4.453125 C 32.320312 -3.273438 30.78125 -2.347656 28.9375 -1.671875 C 27.09375 -0.992188 24.984375 -0.65625 22.609375 -0.65625 C 19.066406 -0.65625 15.828125 -1.484375 12.890625 -3.140625 C 9.960938 -4.796875 7.617188 -7.363281 5.859375 -10.84375 C 4.097656 -14.320312 3.21875 -18.8125 3.21875 -24.3125 C 3.21875 -29.96875 4.125 -34.632812 5.9375 -38.3125 C 7.75 -41.988281 10.117188 -44.707031 13.046875 -46.46875 C 15.984375 -48.238281 19.148438 -49.125 22.546875 -49.125 C 25.085938 -49.125 27.269531 -48.6875 29.09375 -47.8125 C 30.914062 -46.9375 32.414062 -45.816406 33.59375 -44.453125 C 34.769531 -43.085938 35.664062 -41.664062 36.28125 -40.1875 L 36.71875 -40.1875 L 36.71875 -48.5 L 52.09375 -48.5 L 52.09375 0.1875 C 52.09375 4.289062 51.0625 7.753906 49 10.578125 C 46.9375 13.398438 44.050781 15.539062 40.34375 17 C 36.644531 18.46875 32.363281 19.203125 27.5 19.203125 Z M 27.96875 -11.90625 C 29.84375 -11.90625 31.441406 -12.398438 32.765625 -13.390625 C 34.097656 -14.378906 35.117188 -15.796875 35.828125 -17.640625 C 36.546875 -19.492188 36.90625 -21.71875 36.90625 -24.3125 C 36.90625 -26.9375 36.550781 -29.203125 35.84375 -31.109375 C 35.144531 -33.015625 34.125 -34.484375 32.78125 -35.515625 C 31.445312 -36.546875 29.84375 -37.0625 27.96875 -37.0625 C 26.050781 -37.0625 24.429688 -36.535156 23.109375 -35.484375 C 21.785156 -34.429688 20.78125 -32.953125 20.09375 -31.046875 C 19.40625 -29.140625 19.0625 -26.894531 19.0625 -24.3125 C 19.0625 -21.71875 19.410156 -19.492188 20.109375 -17.640625 C 20.804688 -15.796875 21.8125 -14.378906 23.125 -13.390625 C 24.4375 -12.398438 26.050781 -11.90625 27.96875 -11.90625 Z M 27.96875 -11.90625 "/></g></g></g><g fill="#000000" fill-opacity="1"><g transform="translate(182.823127, 78.097861)"><g><path d="M 4.890625 0 L 4.890625 -48.5 L 20.328125 -48.5 L 20.328125 0 Z M 12.625 -54.140625 C 10.457031 -54.140625 8.59375 -54.859375 7.03125 -56.296875 C 5.476562 -57.742188 4.703125 -59.488281 4.703125 -61.53125 C 4.703125 -63.550781 5.476562 -65.28125 7.03125 -66.71875 C 8.59375 -68.164062 10.457031 -68.890625 12.625 -68.890625 C 14.8125 -68.890625 16.675781 -68.164062 18.21875 -66.71875 C 19.769531 -65.28125 20.546875 -63.550781 20.546875 -61.53125 C 20.546875 -59.488281 19.769531 -57.742188 18.21875 -56.296875 C 16.675781 -54.859375 14.8125 -54.140625 12.625 -54.140625 Z M 12.625 -54.140625 "/></g></g></g><g fill="#000000" fill-opacity="1"><g transform="translate(205.382944, 78.097861)"><g><path d="M 27.53125 0.921875 C 22.414062 0.921875 18.03125 -0.128906 14.375 -2.234375 C 10.726562 -4.347656 7.925781 -7.28125 5.96875 -11.03125 C 4.007812 -14.789062 3.03125 -19.144531 3.03125 -24.09375 C 3.03125 -29.0625 4.015625 -33.421875 5.984375 -37.171875 C 7.953125 -40.929688 10.757812 -43.863281 14.40625 -45.96875 C 18.0625 -48.070312 22.425781 -49.125 27.5 -49.125 C 31.976562 -49.125 35.882812 -48.3125 39.21875 -46.6875 C 42.5625 -45.070312 45.175781 -42.785156 47.0625 -39.828125 C 48.945312 -36.867188 49.941406 -33.398438 50.046875 -29.421875 L 35.609375 -29.421875 C 35.316406 -31.910156 34.476562 -33.859375 33.09375 -35.265625 C 31.71875 -36.671875 29.925781 -37.375 27.71875 -37.375 C 25.925781 -37.375 24.359375 -36.875 23.015625 -35.875 C 21.671875 -34.875 20.625 -33.398438 19.875 -31.453125 C 19.125 -29.515625 18.75 -27.113281 18.75 -24.25 C 18.75 -21.382812 19.125 -18.96875 19.875 -17 C 20.625 -15.03125 21.671875 -13.546875 23.015625 -12.546875 C 24.359375 -11.546875 25.925781 -11.046875 27.71875 -11.046875 C 29.144531 -11.046875 30.410156 -11.347656 31.515625 -11.953125 C 32.628906 -12.566406 33.539062 -13.46875 34.25 -14.65625 C 34.96875 -15.851562 35.421875 -17.300781 35.609375 -19 L 50.046875 -19 C 49.898438 -15 48.90625 -11.503906 47.0625 -8.515625 C 45.21875 -5.535156 42.632812 -3.21875 39.3125 -1.5625 C 36 0.09375 32.070312 0.921875 27.53125 0.921875 Z M 27.53125 0.921875 "/></g></g></g><g fill="#000000" fill-opacity="1"><g transform="translate(255.790521, 78.097861)"><g><path d="M 30.03125 0.890625 C 25 0.890625 20.507812 0.0820312 16.5625 -1.53125 C 12.613281 -3.144531 9.519531 -5.332031 7.28125 -8.09375 C 5.039062 -10.863281 3.921875 -13.992188 3.921875 -17.484375 C 3.921875 -20.160156 4.5625 -22.613281 5.84375 -24.84375 C 7.125 -27.070312 8.863281 -28.925781 11.0625 -30.40625 C 13.257812 -31.894531 15.71875 -32.851562 18.4375 -33.28125 L 18.4375 -33.78125 C 14.882812 -34.4375 11.972656 -36.085938 9.703125 -38.734375 C 7.441406 -41.390625 6.3125 -44.492188 6.3125 -48.046875 C 6.3125 -51.421875 7.335938 -54.421875 9.390625 -57.046875 C 11.441406 -59.679688 14.25 -61.753906 17.8125 -63.265625 C 21.382812 -64.785156 25.457031 -65.546875 30.03125 -65.546875 C 34.59375 -65.546875 38.65625 -64.785156 42.21875 -63.265625 C 45.789062 -61.753906 48.601562 -59.679688 50.65625 -57.046875 C 52.707031 -54.421875 53.734375 -51.421875 53.734375 -48.046875 C 53.734375 -44.472656 52.59375 -41.363281 50.3125 -38.71875 C 48.03125 -36.082031 45.128906 -34.4375 41.609375 -33.78125 L 41.609375 -33.28125 C 44.304688 -32.851562 46.753906 -31.894531 48.953125 -30.40625 C 51.148438 -28.925781 52.894531 -27.070312 54.1875 -24.84375 C 55.488281 -22.613281 56.140625 -20.160156 56.140625 -17.484375 C 56.140625 -13.992188 55.007812 -10.863281 52.75 -8.09375 C 50.5 -5.332031 47.410156 -3.144531 43.484375 -1.53125 C 39.566406 0.0820312 35.082031 0.890625 30.03125 0.890625 Z M 30.03125 -10.203125 C 31.9375 -10.203125 33.613281 -10.5625 35.0625 -11.28125 C 36.519531 -12.007812 37.664062 -13.023438 38.5 -14.328125 C 39.332031 -15.640625 39.75 -17.113281 39.75 -18.75 C 39.75 -20.4375 39.328125 -21.929688 38.484375 -23.234375 C 37.640625 -24.535156 36.484375 -25.5625 35.015625 -26.3125 C 33.554688 -27.0625 31.894531 -27.4375 30.03125 -27.4375 C 28.175781 -27.4375 26.507812 -27.0625 25.03125 -26.3125 C 23.5625 -25.5625 22.40625 -24.535156 21.5625 -23.234375 C 20.71875 -21.929688 20.296875 -20.4375 20.296875 -18.75 C 20.296875 -17.113281 20.710938 -15.644531 21.546875 -14.34375 C 22.378906 -13.050781 23.523438 -12.035156 24.984375 -11.296875 C 26.453125 -10.566406 28.132812 -10.203125 30.03125 -10.203125 Z M 30.03125 -38.453125 C 31.664062 -38.453125 33.117188 -38.785156 34.390625 -39.453125 C 35.671875 -40.128906 36.671875 -41.066406 37.390625 -42.265625 C 38.117188 -43.472656 38.484375 -44.832031 38.484375 -46.34375 C 38.484375 -47.863281 38.117188 -49.203125 37.390625 -50.359375 C 36.671875 -51.515625 35.675781 -52.421875 34.40625 -53.078125 C 33.144531 -53.742188 31.6875 -54.078125 30.03125 -54.078125 C 28.382812 -54.078125 26.914062 -53.742188 25.625 -53.078125 C 24.34375 -52.421875 23.34375 -51.515625 22.625 -50.359375 C 21.914062 -49.203125 21.5625 -47.863281 21.5625 -46.34375 C 21.5625 -44.832031 21.921875 -43.476562 22.640625 -42.28125 C 23.367188 -41.09375 24.375 -40.15625 25.65625 -39.46875 C 26.945312 -38.789062 28.40625 -38.453125 30.03125 -38.453125 Z M 30.03125 -38.453125 "/></g></g></g></svg>