<svg width="0" height="0" class="hidden">
  <symbol xmlns="http://www.w3.org/2000/svg" xmlns:xlink="http://www.w3.org/1999/xlink" zoomAndPan="magnify" preserveAspectRatio="xMidYMid meet" version="1.0" viewBox="0 0 375 107.249998" id="logo">
    <defs>
      <g></g>
    </defs>
    <g fill="#000000" fill-opacity="1">
      <g transform="translate(2.162892, 77.850218)">
        <g>
          <path d="M 4.859375 0 L 4.859375 -48.125 L 19.421875 -48.125 L 19.421875 -39.296875 L 19.953125 -39.296875 C 20.960938 -42.210938 22.65625 -44.515625 25.03125 -46.203125 C 27.414062 -47.898438 30.257812 -48.75 33.5625 -48.75 C 36.90625 -48.75 39.765625 -47.890625 42.140625 -46.171875 C 44.523438 -44.460938 46.039062 -42.171875 46.6875 -39.296875 L 47.1875 -39.296875 C 48.082031 -42.148438 49.835938 -44.4375 52.453125 -46.15625 C 55.066406 -47.882812 58.144531 -48.75 61.6875 -48.75 C 66.25 -48.75 69.945312 -47.289062 72.78125 -44.375 C 75.625 -41.46875 77.046875 -37.476562 77.046875 -32.40625 L 77.046875 0 L 61.71875 0 L 61.71875 -28.890625 C 61.71875 -31.296875 61.101562 -33.128906 59.875 -34.390625 C 58.644531 -35.648438 57.046875 -36.28125 55.078125 -36.28125 C 52.972656 -36.28125 51.316406 -35.59375 50.109375 -34.21875 C 48.910156 -32.851562 48.3125 -31.023438 48.3125 -28.734375 L 48.3125 0 L 33.59375 0 L 33.59375 -29.046875 C 33.59375 -31.285156 32.984375 -33.050781 31.765625 -34.34375 C 30.554688 -35.632812 28.960938 -36.28125 26.984375 -36.28125 C 25.640625 -36.28125 24.457031 -35.960938 23.4375 -35.328125 C 22.414062 -34.691406 21.613281 -33.785156 21.03125 -32.609375 C 20.457031 -31.441406 20.171875 -30.066406 20.171875 -28.484375 L 20.171875 0 Z M 4.859375 0 "></path>
        </g>
      </g>
    </g>
    <g fill="#000000" fill-opacity="1">
      <g transform="translate(81.232108, 77.850218)">
        <g>
          <path d="M 18.421875 0.8125 C 15.347656 0.8125 12.625 0.296875 10.25 -0.734375 C 7.882812 -1.765625 6.015625 -3.328125 4.640625 -5.421875 C 3.273438 -7.523438 2.59375 -10.164062 2.59375 -13.34375 C 2.59375 -16.019531 3.0625 -18.273438 4 -20.109375 C 4.945312 -21.953125 6.242188 -23.445312 7.890625 -24.59375 C 9.546875 -25.738281 11.445312 -26.609375 13.59375 -27.203125 C 15.75 -27.804688 18.046875 -28.210938 20.484375 -28.421875 C 23.222656 -28.671875 25.425781 -28.9375 27.09375 -29.21875 C 28.769531 -29.5 29.988281 -29.90625 30.75 -30.4375 C 31.507812 -30.96875 31.890625 -31.726562 31.890625 -32.71875 L 31.890625 -32.875 C 31.890625 -34.476562 31.335938 -35.71875 30.234375 -36.59375 C 29.128906 -37.46875 27.632812 -37.90625 25.75 -37.90625 C 23.726562 -37.90625 22.097656 -37.46875 20.859375 -36.59375 C 19.628906 -35.71875 18.847656 -34.507812 18.515625 -32.96875 L 4.390625 -33.46875 C 4.804688 -36.382812 5.882812 -39 7.625 -41.3125 C 9.375 -43.625 11.773438 -45.441406 14.828125 -46.765625 C 17.890625 -48.085938 21.570312 -48.75 25.875 -48.75 C 28.945312 -48.75 31.78125 -48.390625 34.375 -47.671875 C 36.96875 -46.953125 39.222656 -45.90625 41.140625 -44.53125 C 43.054688 -43.164062 44.539062 -41.488281 45.59375 -39.5 C 46.65625 -37.519531 47.1875 -35.257812 47.1875 -32.71875 L 47.1875 0 L 32.78125 0 L 32.78125 -6.703125 L 32.40625 -6.703125 C 31.539062 -5.078125 30.445312 -3.695312 29.125 -2.5625 C 27.800781 -1.4375 26.242188 -0.59375 24.453125 -0.03125 C 22.671875 0.53125 20.660156 0.8125 18.421875 0.8125 Z M 23.15625 -9.21875 C 24.800781 -9.21875 26.285156 -9.550781 27.609375 -10.21875 C 28.941406 -10.882812 30.003906 -11.804688 30.796875 -12.984375 C 31.585938 -14.171875 31.984375 -15.546875 31.984375 -17.109375 L 31.984375 -21.6875 C 31.546875 -21.457031 31.019531 -21.25 30.40625 -21.0625 C 29.789062 -20.875 29.117188 -20.691406 28.390625 -20.515625 C 27.660156 -20.347656 26.90625 -20.203125 26.125 -20.078125 C 25.351562 -19.953125 24.613281 -19.835938 23.90625 -19.734375 C 22.46875 -19.503906 21.238281 -19.148438 20.21875 -18.671875 C 19.207031 -18.191406 18.4375 -17.570312 17.90625 -16.8125 C 17.375 -16.050781 17.109375 -15.144531 17.109375 -14.09375 C 17.109375 -12.507812 17.675781 -11.300781 18.8125 -10.46875 C 19.945312 -9.632812 21.394531 -9.21875 23.15625 -9.21875 Z M 23.15625 -9.21875 "></path>
        </g>
      </g>
    </g>
    <g fill="#000000" fill-opacity="1">
      <g transform="translate(130.253057, 77.850218)">
        <g>
          <path d="M 27.296875 19.046875 C 22.710938 19.046875 18.789062 18.410156 15.53125 17.140625 C 12.28125 15.867188 9.722656 14.125 7.859375 11.90625 C 6.003906 9.6875 4.890625 7.179688 4.515625 4.390625 L 19.015625 3.578125 C 19.285156 4.554688 19.789062 5.410156 20.53125 6.140625 C 21.28125 6.867188 22.253906 7.429688 23.453125 7.828125 C 24.648438 8.222656 26.066406 8.421875 27.703125 8.421875 C 30.265625 8.421875 32.382812 7.800781 34.0625 6.5625 C 35.75 5.320312 36.59375 3.15625 36.59375 0.0625 L 36.59375 -8.390625 L 36.0625 -8.390625 C 35.457031 -6.910156 34.535156 -5.582031 33.296875 -4.40625 C 32.066406 -3.238281 30.535156 -2.320312 28.703125 -1.65625 C 26.878906 -0.988281 24.789062 -0.65625 22.4375 -0.65625 C 18.925781 -0.65625 15.710938 -1.472656 12.796875 -3.109375 C 9.878906 -4.753906 7.550781 -7.304688 5.8125 -10.765625 C 4.070312 -14.222656 3.203125 -18.675781 3.203125 -24.125 C 3.203125 -29.75 4.097656 -34.378906 5.890625 -38.015625 C 7.679688 -41.660156 10.035156 -44.359375 12.953125 -46.109375 C 15.867188 -47.867188 19.007812 -48.75 22.375 -48.75 C 24.894531 -48.75 27.054688 -48.316406 28.859375 -47.453125 C 30.671875 -46.585938 32.160156 -45.472656 33.328125 -44.109375 C 34.503906 -42.753906 35.394531 -41.347656 36 -39.890625 L 36.4375 -39.890625 L 36.4375 -48.125 L 51.703125 -48.125 L 51.703125 0.1875 C 51.703125 4.257812 50.675781 7.691406 48.625 10.484375 C 46.582031 13.285156 43.722656 15.410156 40.046875 16.859375 C 36.367188 18.316406 32.117188 19.046875 27.296875 19.046875 Z M 27.765625 -11.8125 C 29.617188 -11.8125 31.203125 -12.300781 32.515625 -13.28125 C 33.835938 -14.269531 34.851562 -15.679688 35.5625 -17.515625 C 36.269531 -19.347656 36.625 -21.550781 36.625 -24.125 C 36.625 -26.738281 36.273438 -28.988281 35.578125 -30.875 C 34.878906 -32.769531 33.863281 -34.226562 32.53125 -35.25 C 31.207031 -36.269531 29.617188 -36.78125 27.765625 -36.78125 C 25.859375 -36.78125 24.25 -36.257812 22.9375 -35.21875 C 21.625 -34.175781 20.625 -32.707031 19.9375 -30.8125 C 19.257812 -28.925781 18.921875 -26.695312 18.921875 -24.125 C 18.921875 -21.550781 19.265625 -19.347656 19.953125 -17.515625 C 20.648438 -15.679688 21.648438 -14.269531 22.953125 -13.28125 C 24.253906 -12.300781 25.859375 -11.8125 27.765625 -11.8125 Z M 27.765625 -11.8125 "></path>
        </g>
      </g>
    </g>
    <g fill="#000000" fill-opacity="1">
      <g transform="translate(184.193281, 77.850218)">
        <g>
          <path d="M 4.859375 0 L 4.859375 -48.125 L 20.171875 -48.125 L 20.171875 0 Z M 12.53125 -53.734375 C 10.382812 -53.734375 8.535156 -54.445312 6.984375 -55.875 C 5.441406 -57.3125 4.671875 -59.039062 4.671875 -61.0625 C 4.671875 -63.070312 5.441406 -64.789062 6.984375 -66.21875 C 8.535156 -67.65625 10.382812 -68.375 12.53125 -68.375 C 14.707031 -68.375 16.5625 -67.65625 18.09375 -66.21875 C 19.625 -64.789062 20.390625 -63.070312 20.390625 -61.0625 C 20.390625 -59.039062 19.625 -57.3125 18.09375 -55.875 C 16.5625 -54.445312 14.707031 -53.734375 12.53125 -53.734375 Z M 12.53125 -53.734375 "></path>
        </g>
      </g>
    </g>
    <g fill="#000000" fill-opacity="1">
      <g transform="translate(206.581251, 77.850218)">
        <g>
          <path d="M 27.328125 0.90625 C 22.242188 0.90625 17.890625 -0.132812 14.265625 -2.21875 C 10.648438 -4.3125 7.867188 -7.222656 5.921875 -10.953125 C 3.984375 -14.679688 3.015625 -19 3.015625 -23.90625 C 3.015625 -28.832031 3.988281 -33.160156 5.9375 -36.890625 C 7.894531 -40.617188 10.679688 -43.523438 14.296875 -45.609375 C 17.921875 -47.703125 22.253906 -48.75 27.296875 -48.75 C 31.742188 -48.75 35.617188 -47.941406 38.921875 -46.328125 C 42.234375 -44.722656 44.820312 -42.453125 46.6875 -39.515625 C 48.5625 -36.585938 49.550781 -33.148438 49.65625 -29.203125 L 35.34375 -29.203125 C 35.050781 -31.671875 34.21875 -33.601562 32.84375 -35 C 31.476562 -36.394531 29.703125 -37.09375 27.515625 -37.09375 C 25.734375 -37.09375 24.175781 -36.597656 22.84375 -35.609375 C 21.507812 -34.617188 20.46875 -33.15625 19.71875 -31.21875 C 18.976562 -29.289062 18.609375 -26.90625 18.609375 -24.0625 C 18.609375 -21.21875 18.976562 -18.816406 19.71875 -16.859375 C 20.46875 -14.910156 21.507812 -13.441406 22.84375 -12.453125 C 24.175781 -11.460938 25.734375 -10.96875 27.515625 -10.96875 C 28.929688 -10.96875 30.1875 -11.269531 31.28125 -11.875 C 32.382812 -12.476562 33.289062 -13.367188 34 -14.546875 C 34.707031 -15.734375 35.15625 -17.171875 35.34375 -18.859375 L 49.65625 -18.859375 C 49.507812 -14.890625 48.519531 -11.421875 46.6875 -8.453125 C 44.863281 -5.492188 42.304688 -3.191406 39.015625 -1.546875 C 35.734375 0.0859375 31.835938 0.90625 27.328125 0.90625 Z M 27.328125 0.90625 "></path>
        </g>
      </g>
    </g>
    <g fill="#000000" fill-opacity="1">
      <g transform="translate(256.604855, 77.850218)">
        <g>
          <path d="M 4.734375 0 L 4.734375 -11.15625 L 28.140625 -31.640625 C 29.890625 -33.234375 31.378906 -34.691406 32.609375 -36.015625 C 33.847656 -37.335938 34.789062 -38.671875 35.4375 -40.015625 C 36.082031 -41.367188 36.40625 -42.84375 36.40625 -44.4375 C 36.40625 -46.207031 36.019531 -47.722656 35.25 -48.984375 C 34.476562 -50.253906 33.410156 -51.234375 32.046875 -51.921875 C 30.691406 -52.609375 29.140625 -52.953125 27.390625 -52.953125 C 25.609375 -52.953125 24.050781 -52.59375 22.71875 -51.875 C 21.382812 -51.15625 20.34375 -50.113281 19.59375 -48.75 C 18.851562 -47.394531 18.484375 -45.742188 18.484375 -43.796875 L 3.796875 -43.796875 C 3.796875 -48.171875 4.773438 -51.941406 6.734375 -55.109375 C 8.703125 -58.285156 11.460938 -60.734375 15.015625 -62.453125 C 18.578125 -64.179688 22.722656 -65.046875 27.453125 -65.046875 C 32.316406 -65.046875 36.546875 -64.226562 40.140625 -62.59375 C 43.734375 -60.96875 46.515625 -58.695312 48.484375 -55.78125 C 50.460938 -52.875 51.453125 -49.5 51.453125 -45.65625 C 51.453125 -43.207031 50.957031 -40.78125 49.96875 -38.375 C 48.988281 -35.976562 47.226562 -33.328125 44.6875 -30.421875 C 42.15625 -27.515625 38.5625 -24.035156 33.90625 -19.984375 L 26.21875 -12.90625 L 26.21875 -12.5 L 52.234375 -12.5 L 52.234375 0 Z M 4.734375 0 "></path>
        </g>
      </g>
    </g>
    <g fill="#000000" fill-opacity="1">
      <g transform="translate(310.263079, 77.850218)">
        <g>
          <path d="M 31.265625 1.5625 C 25.671875 1.5625 20.847656 0.234375 16.796875 -2.421875 C 12.742188 -5.085938 9.617188 -8.921875 7.421875 -13.921875 C 5.234375 -18.929688 4.148438 -24.953125 4.171875 -31.984375 C 4.191406 -39.023438 5.289062 -45.003906 7.46875 -49.921875 C 9.65625 -54.847656 12.769531 -58.597656 16.8125 -61.171875 C 20.851562 -63.753906 25.671875 -65.046875 31.265625 -65.046875 C 36.867188 -65.046875 41.703125 -63.753906 45.765625 -61.171875 C 49.828125 -58.597656 52.953125 -54.84375 55.140625 -49.90625 C 57.335938 -44.976562 58.425781 -39.003906 58.40625 -31.984375 C 58.40625 -24.929688 57.304688 -18.894531 55.109375 -13.875 C 52.921875 -8.863281 49.804688 -5.035156 45.765625 -2.390625 C 41.722656 0.242188 36.890625 1.5625 31.265625 1.5625 Z M 31.265625 -11.125 C 34.609375 -11.125 37.3125 -12.832031 39.375 -16.25 C 41.445312 -19.664062 42.472656 -24.910156 42.453125 -31.984375 C 42.453125 -36.628906 41.984375 -40.457031 41.046875 -43.46875 C 40.109375 -46.488281 38.800781 -48.738281 37.125 -50.21875 C 35.457031 -51.707031 33.503906 -52.453125 31.265625 -52.453125 C 27.941406 -52.453125 25.253906 -50.773438 23.203125 -47.421875 C 21.160156 -44.066406 20.128906 -38.921875 20.109375 -31.984375 C 20.085938 -27.285156 20.539062 -23.390625 21.46875 -20.296875 C 22.40625 -17.210938 23.71875 -14.910156 25.40625 -13.390625 C 27.101562 -11.878906 29.054688 -11.125 31.265625 -11.125 Z M 31.265625 -11.125 "></path>
        </g>
      </g>
    </g>
  </symbol>
</svg>